<svg width="650" height="100" xmlns="http://www.w3.org/2000/svg">
    <polygon points="0,0 0,100 100,100" fill="#2196F3" />
    <polygon points="0,0 100,0 50,50" fill="#2196F3" fill-opacity="0.65" />
    <polygon points="210,0 210,100 110,100" fill="#F44336" />
    <polygon points="110,0 110,100 160,50" fill="#F44336" fill-opacity="0.65" />
    <polygon points="220,0 220,100 320,0" fill="#FFC107" />
    <polygon points="430,0 430,100 330,100" fill="#2196F3" />
    <polygon points="330,0 430,0 380,50 330,50," fill="#2196F3" fill-opacity="0.65" />
    <polygon points="440,0 440,100 540,100" fill="#4CAF50" />
    <polygon points="440,0 540,0 540,50 490,50" fill="#4CAF50" fill-opacity="0.65" />
    <polygon points="550,0 550,100 650,0" fill="#F44336" />
</svg>